<?xml version="1.0" encoding="utf-8"?>
<!-- Generator: Adobe Illustrator 25.0.0, SVG Export Plug-In . SVG Version: 6.00 Build 0)  -->
<svg version="1.1" id="Capa_1" xmlns="http://www.w3.org/2000/svg" xmlns:xlink="http://www.w3.org/1999/xlink" x="0px" y="0px"
	 viewBox="0 0 1133.9 1700.8" style="enable-background:new 0 0 1133.9 1700.8;" xml:space="preserve">
<style type="text/css">
	.st0{fill:#F8A51B;}
	.st1{fill:#FFFFFF;}
	.st2{fill:#FFFFFF;}
</style>
<g>
	<path class="st0" d="M340,964.4c-11,2-22.1,2.9-33,5.7c-2.2,0.6-4.6,0.4-6.9,0.6c-5,0.1-10.2-0.7-14.8,0.4
		c-7.6,1.9-15.1,4.3-22.9,5.5c-1.3,0.2-2.2,0.5-2.4,2c-10.9,2.6-21.8,5.3-32.8,7.7c-10.8,2.4-21.6,5-32.2,8.1c-0.9,0.3-2,0.2-3,0.3
		c-1.1-0.4-2.6,0.6-3.6-1.2c2.2-1.2,5-1.7,5.6-4.6c15.3-8.8,31.1-16.7,47.3-24c11.9-5.4,24-10.3,36.2-14.9c2.9-1.1,5.8-2.6,8.8-3.1
		c3.6-0.6,4.1-2.4,3.8-5.5c-0.3-2.8-0.2-5.6-0.2-8.5c0.1-1.3,0.2-2.7,0.2-4c0-110.6,0-221.2,0-331.8c25.3,0,50.6,0,76,0
		c0,30.7,0,61.5,0.1,92.2c0,1.9,0.6,4,0.7,5.7c0.1,3.1,3.2,7.5-4,9.6c3.4,0.1,4.7,2,6.3,0.3c4.1,0,8.3,0.1,12.4,0.1
		c10.3,0,10.3,0,10.5-10.5c0-0.5,0.1-1,0.2-1.5c3.2-0.9,1.8-3.6,1.8-5.4c0.1-30.2,0.1-60.3,0.1-90.5c22.7,0,45.3,0,68,0
		c0,54.2,0,108.4,0,162.6c0,24.1,0,48.2,0,72.3c0,2.9-0.1,5.5,4,4.9c0.3,2.7,2.5,1.8,4.1,2c0.6,2.5-0.8,5.3,1.5,8.3
		c5.5-5.7,10.6-11.6,16.4-16.7c4.1-3.7,5.6-7.9,5.9-13c1.1-17.2,8.8-31.6,19.6-44.6c10.7-13,23.4-23.7,37.6-32.7
		c3.5-2.3,3.5-4.1,0.8-6.9c-3.1-3.2-6.1-6.5-9-9.9c-17.3-20.2-28.8-42.7-26.8-70.3c0.7-10,3.7-19.1,9.6-27.1
		c9.8-13.4,23.4-21,39.7-23.9c11.7-2.1,23.6-2.5,35.2,0c17.7,3.8,31.7,13.5,41.6,28.9c1.6,4.6,3.2,9.2,5.8,13.4
		c-0.2,3.9,1.6,7.5,1.9,11.3c1.6,18.3-4.9,34-16.1,48c-6.4,8.1-14.4,14.5-22.9,20.4c-2,1.4-5,2.3-4.7,5.8c0,1,0,2,0,3
		c-2.7,5.2-2.7,5.1,1.7,9.2c0.3,0.3,0.3,0.9,0.4,1.4c0.5,1.4,2.1,1.9,2.7,1.1c2.1-2.5,3.5,0.3,5.1,0.3c1.3,2.7-0.2,5.3,0,8l0,0
		c-1.5,0-3-0.1-4.5,0.1c-1.6,0.2-3,1.1-3,2.7c0.1,1.6,1.8,1.1,2.8,1.1c2.8,0.1,2.4,1.1,1.3,3.1c-1.9,3.6-3.5,7.4,3,7.9
		c0.1,0,0.1,0.5,0.3,1c-3.1-0.3-5.1,1.1-6,4c-9.8,4-19.6,7.8-29.3,12c-12.7,5.6-25.1,11.7-36.6,19.3c-6.2,2.3-11.1,6.5-16,10.7
		c-19.8,14.1-36,31.5-45.4,54.2c-5.7,13.8-7.4,28.4-5.5,43.4c0.9,7.3,3,14.3,4.7,21.3c0,1.6,0,3.3,0,4.9c-2.5,0.3-1.3-3.1-3.3-3.4
		c-2.2,3.5,0.8,5.9,1.9,8.5c0.6,1.3,1.2-0.5,1.6-1.2c1.8,0.6,3.4,1.8,3.6,3.7c0.7,5.5,4.2,9.7,6.8,14.3c1.7,3.1,5.2,5.5,5.1,10.1
		c-4-1.9-5.2-6.6-9.7-5.9c-3-3.3-6.9-6.1-8.8-9.9c-3-6-7.4-7.1-13.2-5.9c-4.8-0.2-9.4,0.7-14,1.8c-11.2,0.5-22.4,1.9-33.6,3.3
		c-18.4,2.3-36.8,4.6-55.2,6.8c-5.1,0.6-10,2.5-15.2,2C345.2,959.3,343.3,959.7,340,964.4z M371,927.8c-0.9,0.5-2.2,0.6-2.3,2
		c0,0.2,0.6,0.6,1,0.7c1.3,0.2,2.2-0.3,2.2-1.7c6.8-0.8,13.9,1.5,20.4-2c1.3-0.7,3.9,0.1,3.6-2.3c-0.3-2.6,2.1-6-1.9-7.8
		c0,0,0,0,0,0c0-46.6,0.1-93.1,0.1-139.7c0-1.7,0.8-3.9-2-4.3c-0.3,0-0.6-0.1-1-0.2c-6.6-3.4-13.5-1.5-20.3-1.2
		c-0.2,0-0.5,0.8-0.7,1.2c-0.3,0.2-0.6,0.3-0.9,0.3c-0.4,0-0.8-0.1-1.2-0.1c-2.4,0.5-1.9,2.4-1.9,4c0,46.7,0,93.4,0.1,140.1
		c-0.3,1.4,2.1,1.9,1.1,3.8c-2.3,4.1,0.5,5.4,3.9,6C371,927,371,927.4,371,927.8z M567.9,610.9c-0.5,5.6-6,6.9-9.4,9.5
		c-2.9,2.2-2.9,3.5-1.8,6.4c4.4-4.9,8.6-9.3,15.1-9.9c0,0.8,0.1,1.5,0.1,2.3c-0.5,0.5-0.8,1.2-1.4,1.3
		c-16.1,5.2-19.9,21.4-17.8,34.1c2.5,14.6,9.1,27,18.1,38.5c3.3,4.2,7.8,7.7,9.8,12.9c0.7,4.7,4.5,8.2,9.1,8.7
		c2.5,2.6,4.3,2.2,6.9-0.4c7.1-7.3,12.6-15.5,16.2-25c7.3-19.4,6.7-38.2-3.1-56.6c-0.3-6.6-4.2-10.4-9.2-8.8c-4-2.5-8.7-3.1-12.9-5
		c-0.2-2.5-2.1-2.1-3.7-2.1c-4.1,0-8.2,0-12.3,0c3.5-2.7,7.4-3.8,11.7-3.2c2.3,0.3,4.5,0.6,4.3-2.8c-0.1-0.8-0.5-1.8-1.4-1.8
		c-5.8-0.1-11.5-0.1-17.3,0C568.4,609.1,568.1,610,567.9,610.9z M585,768.5c-0.6-0.7-1.2-1.5-1.9-2.2c-4.9-5.1-9.9-10.1-14.6-15.4
		c-1.9-2.1-2.8-1.9-4.7-0.1c-4.7,4.4-9,9.1-12.9,14.2c-5.8,7.5-9.9,16-13.5,24.7c-0.4,0.9-0.7,2,0.1,2.8c0.9,1,1.7,0.1,2.6-0.4
		c3.3-1.8,6.6-3.8,10-5.4c10.3-4.7,19.8-11,30.7-14.3C582.7,772,584.3,770.8,585,768.5z M607.8,767.1c-0.2-1.1-0.7-2-2.2-2.1
		c-1-0.1-1.5,0.6-1.6,1.5c-0.1,1.1,0.2,2,1.5,2.2C606.6,768.8,607.5,768.6,607.8,767.1z"/>
	<path class="st0" d="M625,748.8c3.9,6.3,9.3,5,15,3.2c10.2-3,20.5-5.4,30.9-7.4c16.6-3.2,33.5-5,50.2-7.4c3.3-0.5,4.4-1.9,4.9-4.9
		c2.3-13.4,1.1-15.5-14.2-19.5c-1.9-0.5-4-0.6-5.8-1.2c-3.7-1.2-6.1-9.8-3.7-12.8c1.1-1.4,2.7-0.8,4.2-0.7
		c22.8,1.3,45.6,1.3,68.3,0.1c4.1-0.2,7.4-0.4,7.8,5.1c0.4,5-1.6,8.1-6.8,9.3c-4.8,1.1-9.7,1.9-14.2,4.1
		c-6.5,3.1-10.2,8.8-13.4,14.8c-1.7,3.2,0.9,3.3,3.4,3c13.4-1.3,26.8-2.4,40.2-3.6c1.3-0.1,2.7,0,4,0c1.8,2.9,3.4,3.1,5-0.2
		c0,0,0,0,0,0c6.5,0,13,0,19.5,0c1.3,0,3.2,0.3,3.3-1.4c0.2-3.5,2.5-6.3,2.4-10c-0.4-9.8-0.4-19.6,0-29.4c0.3-7.4-1.2-14.8,1.1-22.2
		c1.2-3.8-1.7-6.4-5.8-6.9c-1.3-0.2-2.7,0-4,0c-45.1,0-90.2-0.1-135.3-0.1c0-14.4,0-28.7,0-43.1c0-1.7-1.1-4.2,2-4.8
		c92.3,0,184.6,0,276.9,0c0,16.3,0,32.6,0,49c-18.1,0-36.3,0-54.4,0c-2,0-5.2-1.3-4.5,3c0,20,0,40,0,59.9c-0.7,2.7,1,3.2,3,3.2
		c6.3,0.1,12.6,1.2,18.9,0.7c0,0-0.1,0.2-0.1,0.2c-0.2,1.9-1.7,1.7-3,1.7c-3,0.1-5.9,0.1-8.9,0.1c-4,0-8,0-12,0.1
		c-12.8,0-25.6-0.6-38.4,0.2c-5.8,0.3-11.9-0.2-17.6,1.7c-2,0.1-4,0.2-6,0.3c-12,0.8-24,1.5-36.1,2.5c-2,0.2-4.4-0.4-6.2,1.2
		c-12.2,0-24.1,2-36.1,3.5c-15.8,2-31.6,4-47.2,6.8c-20,3.6-40,7.5-59.6,13c-13.5,3.8-27.2,7-40.3,12.4c-0.7,0.3-1.6,0.2-2.4,0.3
		c0.9-2.8,2.9-4.2,6-4c-0.2-0.5-0.2-1-0.3-1c-6.5-0.5-4.9-4.3-3-7.9c1-2,1.4-3-1.3-3.1c-1,0-2.7,0.5-2.8-1.1c-0.1-1.6,1.4-2.5,3-2.7
		c1.5-0.2,3-0.1,4.5-0.1c0.5,2.5,1.8,2.1,3.6,1.3c-0.9-1.9-2.4-1.1-3.6-1.3c-0.2-2.7,1.3-5.3,0-8l0,0c1.6,0.1,3.4-0.5,4.1,1.8
		C620.8,749.1,623,748.7,625,748.8z M659.5,753.6c-1.7-1.5-3.8-0.4-5.6-1.7c-2.2-1.6-2.1,1-1.5,1.7c1.9,2.1,4.4,1.2,6.7,0.7
		C659.1,754.3,659.2,754.1,659.5,753.6z M632.8,759.4c-3.1-0.6-4.7-1-7,0.6C628.1,760.9,629.7,761.1,632.8,759.4z M854.5,730.9
		c0.4-0.5,0.6-0.8,0.9-1.1c-0.4-0.2-0.7-0.7-1.1-0.7c-0.3,0-0.6,0.5-0.9,0.8C853.7,730.2,854,730.5,854.5,730.9z"/>
	<path class="st1" d="M172.1,1030.6c9.6,0,19.3,0,28.9,0c10.6,0.1,16.8,4.8,18.9,14.1c2.5,11.7-1.5,20.6-11.1,24.9
		c-0.9,0.4-1.7,0.9-2.8,1.5c2.5,2.6,5.1,4.7,6.7,7.7c4.1,7.6,8.2,15.2,12.5,23.3c-4.7,1-9,0.3-13.2,0.5c-1.9,0.1-2.3-1.7-3-2.9
		c-4-7.1-8-14.2-12-21.3c-2.1-3.7-5.2-5.8-9.7-5.8c-2.6,0-3.4,0.9-3.3,3.5c0.2,7.5-0.1,15,0.1,22.4c0.1,3.2-0.7,4.5-4.1,4.2
		c-2.6-0.3-5.3-0.1-8-0.1C172.1,1078.5,172.1,1054.6,172.1,1030.6z M193.5,1060.5c2.2,0,4.3,0.1,6.5,0c5.3-0.4,7.9-3.4,8-8.9
		c0.1-4.8-2.4-7.7-7.3-8.4c-2.6-0.4-5.3-0.5-7.9-0.5c-8.6-0.1-8.6,0-8.6,8.6C184.1,1060.7,184.1,1060.7,193.5,1060.5z"/>
	<path class="st2" d="M898.8,1103.5c-9.9-3.5-15.1-10.6-16.8-20.8c-0.5-2.8-0.1-4.5,3.3-4.4c1.3,0.1,2.6-0.4,3.9-0.6
		c2.8-0.5,4.3,0,5.2,3.3c2.4,8.5,7.9,11.6,15.8,9.5c4.3-1.2,7-4,7.3-8.5c0.3-4.2-2.1-6.8-6-8.1c-5-1.7-10.1-3.3-15-5.3
		c-9.5-3.9-14.3-13.3-12.4-23.5c1.8-9.8,9.2-15.6,20.1-15.8c13.7-0.2,21.7,5.6,23.6,17.1c0.6,3.4,0,5.2-4.1,5.1
		c-4.3-0.1-7.9,0.8-9.6-5.3c-1.7-6-13.8-6.5-17.3-1.3c-2.3,3.4-1.2,7.3,3.3,9.3c4.7,2.1,9.7,3.3,14.5,5.2
		c15.3,5.8,20.3,23.8,10.4,36.8c-3.1,4.1-7.7,5.4-12.1,7.2C908.1,1103.5,903.5,1103.5,898.8,1103.5z"/>
	<path class="st3" d="M681.9,660.8c45.1,0,90.2,0.1,135.3,0.1c1.3,0,2.7-0.1,4,0c4.1,0.5,7,3.1,5.8,6.9c-2.4,7.4-0.8,14.8-1.1,22.2
		c-0.4,9.8-0.3,19.6,0,29.4c0.1,3.7-2.2,6.5-2.4,10c-0.1,1.7-2,1.4-3.3,1.4c-6.5,0-13,0-19.5,0c6-1.6,12.2-1.3,18.2-1.9
		c1.4-0.1,3.7,0.9,3.6-2c0.1-20.7,0.3-41.3,0.4-62c0-0.9-0.3-1.6-1.2-2c-2.7-0.1-5.4-0.2-8.1-0.3c-1.8-1.3-3.9-0.7-5.8-0.7
		c-45.7-0.1-91.5-0.1-137.2-0.1c-1.1-1.5-0.7-3.2-0.7-4.8c0-17.1,0.2-34.3-0.1-51.4c0-3.7,1.1-4.5,4.5-4.5c15.2,0.1,30.3,0,45.5,0
		c78.3,0,156.6,0,234.8,0c2,0,4-0.1,6-0.1c0,0.7,0,1.3,0,2c-92.1,0-184.1,0-276.2,0c0,0.7,0,1.3,0,2c92.1,0,184.1,0,276.2,0
		c0,0.7,0,1.3,0,2c-92.9,0-185.9,0-278.8-0.1c-0.7-4.9-4.9-3.4-7.7-3.8c-2.9-0.4-2.2,2.2-2.3,3.9c0,0.7,0,1.3,0,2
		c0,15.7-0.1,31.4,0,47.1c0,1.7-1.2,4.2,1.9,4.8c0.7,0,1.4,0,2,0c1.3,0,2.6,0,3.9,0C680.5,660.7,681.2,660.7,681.9,660.8z"/>
	<path class="st4" d="M466,836.7c-4.1,0.6-4-2-4-4.9c0.1-24.1,0-48.2,0-72.3c0-54.2,0-108.4,0-162.6c1.3,0,2.7,0,4,0
		C466,676.8,466,756.8,466,836.7L466,836.7z"/>
	<path class="st5" d="M290,596.9c0,110.6,0,221.2,0,331.8c0,1.3-0.1,2.7-0.2,4c-0.6,0-1.2,0-1.8,0c0-111.9,0-223.8,0-335.8
		C288.7,596.9,289.4,596.9,290,596.9z"/>
	<path class="st6" d="M288.1,596.9c0,111.9,0,223.8,0,335.8c-1.4-0.2-2-1-2-2.4c0-1.3,0-2.7,0-4c0-109.8,0-219.6,0-329.4
		C286.7,596.9,287.4,596.9,288.1,596.9z"/>
	<path class="st0" d="M681.9,660.8c-0.7,0-1.4,0-2,0c0-16,0-31.9,0-47.9c0-1,0-2,0-3c2.3-1.4,4.8-1,7.3-1c91.2,0,182.4,0,273.6,0
		c0,0.7,0,1.3,0,2c-70.9,0-141.8,0-212.6,0c-19.8,0-39.6,0-59.4,0c-1.8,0-4.2-1.1-4.9,2c-3,0.6-1.9,3.1-2,4.8
		C681.9,632,681.9,646.4,681.9,660.8z"/>
	<path class="st7" d="M960.8,608.9c-91.2,0-182.4,0-273.6,0c-2.5,0-5-0.4-7.3,1c-1.8-1.4-3.3-1.8-4,1c-1.3-0.7-2.6-1.3-4-2
		c0-0.7,0-1.3,0-2c3.3,0,6.7-0.1,10-0.1c92.9,0,185.9,0,278.8,0.1C960.8,607.5,960.8,608.2,960.8,608.9z"/>
	<path class="st4" d="M683.9,612.9c0.6-3.1,3.1-1.9,4.9-2c19.8-0.1,39.6,0,59.4,0c70.9,0,141.8,0,212.6,0c0,0.7,0,1.3,0,2
		C868.5,612.9,776.2,612.9,683.9,612.9z"/>
	<ellipse class="st0" cx="822.7" cy="603.9" rx="195.3" ry="1.4"/>
	<path class="st7" d="M470,596.9c0.1,1.5,0.2,3,0.2,4.5c0,78.6,0.1,157.3,0.1,235.9c0,0.5-0.2,1-0.2,1.5c-1.6-0.2-3.7,0.7-4.1-2
		c0,0,0,0,0,0c3.5-1,1.9-3.9,1.9-5.9c0.1-78,0.1-156,0.1-234C468.6,596.9,469.3,596.9,470,596.9z"/>
	<path class="st8" d="M468,596.9c0,78,0,156-0.1,234c0,2,1.6,4.9-1.9,5.9c0-79.9,0-159.9,0-239.8C466.6,596.9,467.3,596.9,468,596.9
		z"/>
	<path class="st3" d="M369,596.9c0,35.9,0,71.9,0,107.8c-1.6,1.7-3-0.2-6.3-0.3c7.3-2.1,4.2-6.4,4-9.6c-0.1-1.8-0.7-3.8-0.7-5.7
		c-0.1-30.7-0.1-61.5-0.1-92.2C367,596.9,368,596.9,369,596.9z"/>
	<path class="st7" d="M392.1,692.8c0-32-0.1-63.9-0.1-95.9c0.7,0,1.3,0,2,0c0,30.2,0,60.3-0.1,90.5
		C393.9,689.3,395.3,691.9,392.1,692.8z"/>
	<path class="st9" d="M901.9,664.8c-0.7-4.3,2.5-3,4.5-3c18.1-0.1,36.3,0,54.4,0c0,0.3,0,0.7,0,1c-15.9,0-31.9,0-47.8,0.1
		c-6.2,0-7.2,1-7.2,7.2c0,16.6,0,33.2-0.1,49.8c0,1.7,1.1,4.2-1.9,4.9c0,0,0,0,0,0c0-18.6,0-37.1,0-55.7
		C903.8,667.5,904.7,665.3,901.9,664.8z"/>
	<path class="st1" d="M917.1,739.2c-4.2,1.3-7.7,2.6-11.3,3.5c-3,0.7-4.2,2.1-4.2,5.4c0.1,67.4,0.1,134.8,0,202.2
		c0,3,1.1,4.3,3.8,5.4c13.3,5.2,26.5,10.6,39.5,16.9c-4.3-1.1-8.5-2-12.8-3.2c-44.8-12.6-89.3-25.9-132.7-43
		c-29.9-11.8-59.3-24.6-86-42.8c-10.4-7-20-15-27.4-25.2c-12.2-16.8-10.8-33,4-47.5c10-9.8,22-16.6,34.6-22.4
		c32.1-14.6,65.9-23.8,100-31.9c28.6-6.8,57.5-12.3,86.4-17.6C912.8,738.8,914.6,738.3,917.1,739.2z M823,844.2
		c0-23.5,0-46.9,0-70.4c0-3.3-0.3-4.9-4.4-3.5c-20.1,6.8-40.4,13.3-60.6,20.1c-14.7,5-28.7,11.6-40.7,21.8
		c-14.8,12.4-16.6,27.5-5.2,43.1c2.7,3.6,5.6,7,9,10c11.1,10.2,23.9,18,37.2,25c19.7,10.4,40.5,18.5,60.8,27.6
		c4.4,2,3.8-0.7,3.8-3.3C823,891.1,823,867.7,823,844.2z"/>
	<path class="st2" d="M767.9,1071c9.6,8.5,13.1,20.4,19.4,31.5c-4.9,0-9-0.1-13.1,0c-2.3,0.1-2.5-1.8-3.3-3.1
		c-3.8-6.6-7.4-13.4-11.2-20c-1.1-1.8-2.4-3.7-4-5.1c-2.4-2.1-5.7-2.5-8.5-1.5c-2.4,0.9-1.1,3.8-1.1,5.8c-0.2,6.6-0.2,13.3,0,20
		c0.1,3-0.7,4-3.9,4c-8.4,0-8.4,0.1-8.4-8.3c0-19.8,0.1-39.6-0.1-59.4c0-3.5,0.8-4.6,4.4-4.4c8.1,0.3,16.3,0,24.4,0.1
		c11.1,0,17.4,4.8,19.2,14.3c2.3,12.2-1.7,20.9-11.6,25C769.5,1070.2,768.8,1070.6,767.9,1071z M755.9,1060.6c1.8,0,3.6,0.1,5.5,0
		c5.5-0.3,8.2-2.9,8.5-8.3c0.3-5.3-2.5-8.7-8-9.3c-2.5-0.2-5-0.2-7.4-0.2c-9.3,0.1-8.3-1.3-8.3,8.1
		C746,1060.7,746.1,1060.7,755.9,1060.6z"/>
	<path class="st2" d="M437,1066.8c0-10.6,0.2-21.3-0.1-31.9c-0.1-3.6,1.1-4.5,4.5-4.4c6.8,0.3,13.6,0.1,20.5,0.1
		c9.5,0,16.4,4.3,20.1,12.9c6.5,15.4,6.5,31-0.1,46.4c-3.5,8-10.3,12-19,12.4c-7.6,0.4-15.3,0-22.9,0.2c-3.2,0.1-2.9-1.8-2.9-3.9
		C437,1088.1,437,1077.4,437,1066.8C437,1066.8,437,1066.8,437,1066.8z M449,1066c0,4.2,0,8.3,0,12.5c0,12.6,0,12.5,12.9,11.3
		c5.5-0.5,8.8-3.3,10.3-8.6c1.8-6.2,2-12.5,1.7-18.8c-0.7-15.7-5.4-19.9-20.9-19.8c-3.5,0-4.1,1.3-4,4.4
		C449.1,1053.4,449,1059.7,449,1066z"/>
	<path class="st2" d="M625.7,933.8c7.3-2.4,14.4-4.7,21.5-7c1.6-0.5,2.9,0.4,4.1,1.2c22.3,15.4,46.3,28,70.6,40
		c0.7,0.3,1.3,0.8,2.8,1.7C714,974,704,978,694.1,982c-1.6,0.7-2.9-0.1-4.2-0.8c-21.2-12.2-41.7-25.4-59.9-42c-1.1-1-2.1-2.2-3-3.3
		C626.6,935.4,626.3,934.8,625.7,933.8z"/>
	<path class="st2" d="M587.8,1066.2c0-10.6,0.1-21.3-0.1-31.9c0-2.7,0.7-3.8,3.6-3.7c12.3,0.1,24.6,0.1,36.9,0
		c2.9,0,3.7,0.9,3.6,3.7c-0.3,10.2,1.4,8.3-8.3,8.5c-6.5,0.1-13,0.1-19.5-0.1c-3.1-0.1-4.3,0.7-4.3,4.1c0,11.8-0.2,11.8,11.5,11.8
		c4.7,0,9.3,0.2,14-0.1c3.6-0.2,4.5,1.2,4.4,4.6c-0.2,9.5,0.3,7.5-7.8,7.7c-6.2,0.1-12.3,0.2-18.5,0c-2.9-0.1-3.8,1-3.6,3.8
		c0.2,3.6,0.3,7.3,0,11c-0.3,3.4,0.8,4.7,4.4,4.6c8-0.2,16,0.1,24-0.2c3.7-0.1,4.9,0.9,4.7,4.7c-0.3,8-0.1,8-7.9,8
		c-11,0-22-0.1-32.9,0.1c-3.6,0.1-4.5-1.1-4.4-4.5C587.9,1087.5,587.8,1076.8,587.8,1066.2z"/>
	<path class="st2" d="M633.1,913.6c-6.6,3.1-12.6,5.9-18.6,8.7c-1.4,0.6-2.5,0.3-3.7-0.6c-10.2-7.6-19.4-16.2-25.1-27.8
		c-1.4-2.9-1.4-4.1,2.5-5.5c10.6-3.7,18.5-2.9,25.1,7.9C617.5,903.4,625.4,907.9,633.1,913.6z"/>
	<path class="st2" d="M322.2,1066.6c0-10.5,0.2-20.9-0.1-31.4c-0.1-3.7,0.9-5.2,4.7-4.7c1.5,0.2,3,0.1,4.5,0c2.1-0.1,3,0.6,3,2.8
		c-0.1,22.1-0.1,44.2,0,66.3c0,2.2-0.7,2.8-2.9,2.9c-9.2,0.7-9.2,0.7-9.2-8.6C322.2,1084.9,322.2,1075.7,322.2,1066.6z"/>
	<path class="st2" d="M601,836.9c-1.3,3.7-2.6,7.1-3.6,10.5c-2.1,7-2.5,14-0.6,21.1c0.8,2.9,0.5,4.5-3,4.2c-1-0.1-2,0.2-3,0.3
		c-10.6,1.6-11,1.2-10.9-9.8c0.1-9.5,4.2-17.6,9.1-25.4c0.9-1.5,2.3-1.9,3.8-1.8C595.5,836.2,598.1,836.6,601,836.9z"/>
	<path class="st2" d="M639.6,806.5c-8.6,4.2-16.9,7.8-22.7,14.4c-5.1,5.8-10.7,6.2-17.7,4.4c8.3-9.5,18.2-16.6,29.2-22.1
		C630.3,802.3,631.9,803,639.6,806.5z"/>
	<path class="st2" d="M646,793.8c9.9-4.6,19.9-8.6,30.4-11c2.3-0.5,4.4,0.5,5,2.3c0.7,2.2-2.1,2-3.4,2.6c-6.9,2.9-14,5.3-20.7,8.5
		C652.8,798.3,649.5,797.6,646,793.8z"/>
	<path class="st10" d="M488,964.6c4.5-0.7,5.7,4,9.7,5.9c0.1-4.7-3.4-7.1-5.1-10.1c-2.6-4.6-6.1-8.7-6.8-14.3
		c-0.2-1.8-1.8-3.1-3.6-3.7c0-1.3-0.1-2.5-0.1-3.8c0-1.6,0-3.3,0-4.9c2.7,5.8,5.3,11.5,8,17.3c3.8,8.1,9.3,15.2,13.6,22.9
		c0.5,1,2.4,1.8,0.8,3.3c-1.6,1.5-2.5-0.3-3.2-1C497,972.1,491,970.1,488,964.6z"/>
	<path class="st9" d="M795.6,736.6c1.8-1.6,4.1-1,6.2-1.2c12-1,24-1.7,36.1-2.5c-1.6,3.5-4.7,1.2-7.1,1.8c-1.4,0.4-3.6-0.9-3.2,2.2
		c0.2,1.2-0.8,1.8-1.9,1.7c-5.1-0.4-10.2,1-15.3-1.1C805.7,735.6,800.5,737.5,795.6,736.6z"/>
	<path class="st3" d="M260,978.6c0.2-1.4,1.1-1.8,2.4-2c7.8-1.2,15.3-3.6,22.9-5.5c4.7-1.2,9.9-0.3,14.8-0.4
		c-4.6,2.8-9.9,2.3-14.9,3.3C276.9,975.5,268.7,978.4,260,978.6z"/>
	<path class="st3" d="M843.9,732.6c5.7-1.8,11.8-1.3,17.6-1.7c12.8-0.7,25.6-0.2,38.4-0.2C881.2,731.7,862.6,732.7,843.9,732.6z"/>
	<path class="st10" d="M911.9,730.8c3,0,5.9-0.1,8.9-0.1c1.3,0,2.8,0.3,3-1.7c4,0.2,8.2-0.5,12.7,2.4
		C927.7,733.4,919.8,731.4,911.9,730.8z"/>
	<path class="st9" d="M528.1,814.8c4.9-4.2,9.8-8.4,16-10.7c0.2,3-0.5,4.6-4.2,4.9c-2.9,0.2-4.7,3.6-7.7,4.7
		C530.8,814.2,529.6,814.8,528.1,814.8z"/>
	<path class="st3" d="M194.1,988.7c-0.6,2.9-3.5,3.4-5.6,4.6c1,1.8,2.5,0.8,3.6,1.2c-2.1,1.5-4.4,2.2-7,2c-1.2-0.2-2.7,0.2-2.9-1.6
		C185.9,992.5,189.7,990,194.1,988.7z"/>
	<path class="st9" d="M923.8,728.7c-6.3,0.5-12.6-0.6-18.9-0.7c-2.1,0-3.7-0.6-3-3.2c0.7,0,1.3,0,2,0c0,0,0,0,0,0
		c0.3,2.4,2.2,2,3.8,2c4.1,0,8.2,0,12.3,0C921.5,726.8,923.4,726.3,923.8,728.7z"/>
	<path class="st10" d="M182.2,995c0.2,1.9,1.7,1.5,2.9,1.6c-2.6,1.9-5,5-8.9,1.4C178.3,996.9,180.2,995.9,182.2,995z"/>
	<path class="st9" d="M452,950.6c4.6-1.1,9.2-2,14-1.8c-1.6,2.5-2.9,5-6.8,2.4C457.5,950.1,454.5,950.8,452,950.6z"/>
	<path class="st3" d="M340,964.4c3.3-4.7,5.2-5.1,8.1-1.7C345.8,965.3,342.7,964,340,964.4z"/>
	<path class="st6" d="M228,993.2c3-0.7,5.2-0.9,7.4,0.6C233.1,994.6,230.8,995.3,228,993.2z"/>
	<path class="st7" d="M392,916.6c0-48-0.1-95.9-0.1-143.9c2.8,0.4,2,2.6,2,4.3c0,46.6,0,93.1-0.1,139.7
		C393.3,916.7,392.7,916.7,392,916.6z"/>
	<path class="st4" d="M366.1,916.8c0-46.7-0.1-93.4-0.1-140.1c0-1.6-0.6-3.5,1.9-4c0,46.5,0,93,0,139.6
		C367.9,914,368.8,916.1,366.1,916.8z"/>
	<path class="st10" d="M366.1,916.8c2.7-0.7,1.8-2.8,1.8-4.5c0-46.5,0-93,0-139.6c0.4,0,0.8,0.1,1.2,0.1c0,48.3-0.1,96.7-0.1,145
		c0,6.9,0,6.8,7.1,5.9c3.4-0.5,6.9-0.9,10.3-1.3c3.6-0.3,6-1.7,5.6-5.8c0.6,0,1.3,0.1,1.9,0.1c0,0,0,0,0,0c0.2,3.4,0.2,7.3-4.1,7.7
		c-6.3,0.5-12.7,0.2-18.9,2.3c-3.4-0.7-6.2-1.9-3.9-6C368.2,918.7,365.8,918.3,366.1,916.8z"/>
	<path class="st7" d="M571.9,616.9c-6.6,0.6-10.7,5-15.1,9.9c-1.1-3-1.1-4.2,1.8-6.4c3.4-2.6,8.8-3.9,9.4-9.5c6.7,0,13.3,0,20,0
		c0.2,3.4-2,3.1-4.3,2.8C579.3,613.1,575.4,614.1,571.9,616.9C571.9,616.9,571.9,616.9,571.9,616.9z"/>
	<path class="st7" d="M371,926.7c6.1-2.1,12.5-1.8,18.9-2.3c4.3-0.3,4.3-4.3,4.1-7.7c4,1.7,1.6,5.2,1.9,7.8c0.3,2.4-2.2,1.6-3.6,2.3
		c-6.6,3.5-13.7,1.2-20.4,2c-0.3-0.3-0.6-0.6-0.9-0.9C371,927.4,371,927,371,926.7z"/>
	<path class="st0" d="M615.9,744.8c-1.7,0-3.1-2.8-5.1-0.3c-0.6,0.7-2.2,0.3-2.7-1.1c-0.2-0.5-0.1-1.1-0.4-1.4
		c-4.4-4.1-4.4-4.1-1.7-9.2c1,0,2,0,3,0c0,0,0,0,0,0c0.4,0.3,0.7,0.7,1.1,1c0,0,0,0,0,0c0,0.6,0.4,1,1,1c0,0,0,0,0,0
		C611.2,738.7,616.7,740.2,615.9,744.8L615.9,744.8z"/>
	<path class="st6" d="M642,630.8c1.9,0,3.7-3.9,5.4-1c1.4,2.4,4.3,5.3,1.9,8.4c-1.5,2-1.2,4-1.5,6
		C645.2,640.1,643.6,635.4,642,630.8z"/>
	<path class="st8" d="M587.9,610.9c-6.7,0-13.3,0-20,0c0.1-0.8,0.5-1.8,1.4-1.8c5.8-0.1,11.5-0.1,17.3,0
		C587.5,609.1,587.8,610,587.9,610.9z"/>
	<path class="st10" d="M391,772.6c-1,0.1-2,0.2-3,0.4c-2,0-4,0-6,0c-4-0.1-8-0.2-12-0.3c0.2-0.4,0.4-1.2,0.7-1.2
		C377.5,771.1,384.4,769.2,391,772.6z"/>
	<path class="st3" d="M610,632.8c-3.1-2.9-6.1-5.9-9.2-8.8C605.8,622.4,609.7,626.2,610,632.8z"/>
	<path class="st3" d="M580.8,706c4.1,1.8,6.9,5,9.1,8.7C585.3,714.3,581.6,710.7,580.8,706z"/>
	<path class="st7" d="M587.9,619c-5.3,0.1-10.5,0.1-15.8,0.2c0-0.8-0.1-1.5-0.1-2.3c0,0,0,0,0,0c4.1,0,8.2,0,12.3,0
		C585.8,616.9,587.7,616.5,587.9,619z"/>
	<path class="st7" d="M482,938.6c0,1.3,0.1,2.6,0.1,3.8c-0.4,0.7-1,2.6-1.6,1.2c-1.1-2.6-4.1-5-1.9-8.5
		C480.7,935.5,479.5,939,482,938.6z"/>
	<path class="st0" d="M607.8,767.1c-0.3,1.5-1.2,1.7-2.3,1.5c-1.3-0.2-1.6-1.1-1.5-2.2c0.1-0.9,0.6-1.6,1.6-1.5
		C607,765.1,607.6,766,607.8,767.1z"/>
	<path class="st10" d="M371,927.8c0.3,0.3,0.6,0.6,0.9,0.9c0,1.5-0.9,1.9-2.2,1.7c-0.4-0.1-1-0.5-1-0.7
		C368.7,928.4,370.1,928.4,371,927.8z"/>
	<path class="st10" d="M609,732.8c-1,0-2,0-3,0c0-1,0-2,0-3C607.7,730,608.2,731.5,609,732.8z"/>
	<ellipse class="st5" cx="745.9" cy="665.9" rx="92.3" ry="0.7"/>
	<path class="st10" d="M670.8,661.7c45.7,0,91.5,0.1,137.2,0.1c1.9,0,4-0.6,5.8,0.7c-2.6,1.2-5.2,0-7.7,0
		c-42.6,0.1-85.2,0.1-127.8,0C675.8,662.6,673.1,663.5,670.8,661.7z"/>
	<path class="st9" d="M821.8,662.8c0.9,0.3,1.2,1.1,1.2,2c-0.1,20.7-0.2,41.3-0.4,62c-1.4-1.4-0.8-3.1-0.8-4.7
		C821.8,702.3,821.8,682.6,821.8,662.8z"/>
	<path class="st10" d="M616,744.8c0.7-4.5-4.7-6-5-10.1c5.3,4.1,9.9,8.7,14,14.1c-2,0-4.2,0.3-4.9-2.2
		C619.3,744.3,617.5,744.9,616,744.8z"/>
	<path class="st5" d="M674.2,665.5c-1.9,1.9-3.8,1.2-6.6,0.8C670.3,664.1,672.3,665.1,674.2,665.5z"/>
	<path class="st3" d="M800.8,730.7c-1.6,3.3-3.2,3.1-5,0.2C797.5,730.9,799.2,730.8,800.8,730.7z"/>
	<path class="st10" d="M610,733.7c-0.4-0.3-0.7-0.7-1.1-1C609.6,732.8,610,733.1,610,733.7z"/>
	<path class="st10" d="M611,734.7c-0.6,0-1-0.3-1-1C610.3,734,610.7,734.4,611,734.7z"/>
	<path class="st11" d="M903.8,724.8c-0.7,0-1.3,0-2,0c0-20,0-40,0-59.9c2.8,0.4,2,2.7,2,4.3C903.9,687.7,903.8,706.3,903.8,724.8z"
		/>
	<path class="st8" d="M659.5,753.6c-0.3,0.5-0.3,0.7-0.4,0.7c-2.3,0.4-4.9,1.4-6.7-0.7c-0.6-0.7-0.7-3.3,1.5-1.7
		C655.6,753.2,657.8,752,659.5,753.6z"/>
	<path class="st8" d="M632.8,759.4c-3.1,1.8-4.7,1.5-7,0.6C628.1,758.3,629.7,758.8,632.8,759.4z"/>
	<path class="st0" d="M615.9,752.8c1.2,0.3,2.7-0.6,3.6,1.3C617.8,754.9,616.4,755.2,615.9,752.8
		C615.9,752.8,615.9,752.8,615.9,752.8z"/>
	<path class="st3" d="M854.5,730.9c-0.5-0.4-0.8-0.7-1.2-1c0.3-0.3,0.6-0.8,0.9-0.8c0.3,0,0.7,0.4,1.1,0.7
		C855.1,730.1,854.8,730.4,854.5,730.9z"/>
	<path class="st7" d="M679.9,612.9c0,16,0,31.9,0,47.9c-1.3,0-2.6,0-3.9,0c0-16,0-31.9,0-47.9c0,0,0,0,0,0
		C677.2,612.9,678.6,612.9,679.9,612.9z"/>
	<path class="st0" d="M671.9,608.9c1.3,0.7,2.6,1.3,4,2c0,0.7,0,1.3,0,2c0,0,0,0,0,0c-3,0.6-1.9,3.1-2,4.8c-0.1,14.4,0,28.7,0,43.1
		c-3.2-0.5-1.9-3.1-1.9-4.8C671.9,640.3,671.9,624.6,671.9,608.9z"/>
	<path class="st0" d="M673.9,660.7c0-14.4,0-28.7,0-43.1c0-1.7-1.1-4.2,2-4.8c0,16,0,31.9,0,47.9
		C675.3,660.7,674.6,660.7,673.9,660.7z"/>
	<path class="st0" d="M682,606.8c-3.3,0-6.7,0.1-10,0.1c0.1-1.7-0.6-4.3,2.3-3.9C677.1,603.4,681.2,601.9,682,606.8z"/>
	<path class="st0" d="M675.9,612.9c0-0.7,0-1.3,0-2c0.7-2.8,2.3-2.4,4-1c0,1,0,2,0,3C678.6,612.9,677.2,612.9,675.9,612.9z"/>
</g>
</svg>
